<svg version="1.1" viewBox="0.0 0.0 673.501312335958 673.501312335958" fill="none" stroke="none" stroke-linecap="square" stroke-miterlimit="10" xmlns:xlink="http://www.w3.org/1999/xlink" xmlns="http://www.w3.org/2000/svg"><clipPath id="p.0"><path d="m0 0l673.50134 0l0 673.50134l-673.50134 0l0 -673.50134z" clip-rule="nonzero"/></clipPath><g clip-path="url(#p.0)"><path fill="#000000" fill-opacity="0.0" d="m0 0l673.50134 0l0 673.50134l-673.50134 0z" fill-rule="evenodd"/><defs><linearGradient id="p.1" gradientUnits="userSpaceOnUse" gradientTransform="matrix(13.166571148196669 0.0 0.0 13.166571148196669 0.0 0.0)" spreadMethod="pad" x1="28.12361240199479" y1="34.31044401357633" x2="41.290183550191465" y2="34.31044401357633"><stop offset="0.0" stop-color="#ed7a52"/><stop offset="1.0" stop-color="#fec02a"/></linearGradient></defs><path fill="url(#p.1)" d="m402.39426 348.43512l-32.102722 102.89011l135.78772 0.4256897l37.570892 -103.315796z" fill-rule="evenodd"/><path fill="#c13262" d="m201.95865 370.88538l132.82935 0l0 184.88086l-132.82935 0z" fill-rule="evenodd"/><defs><linearGradient id="p.2" gradientUnits="userSpaceOnUse" gradientTransform="matrix(13.166571148196669 0.0 0.0 13.166571148196669 0.0 0.0)" spreadMethod="pad" x1="33.2744085149298" y1="20.32177200206138" x2="46.44097966312647" y2="20.32177200206138"><stop offset="0.0" stop-color="#ed7a52"/><stop offset="1.0" stop-color="#fec02a"/></linearGradient></defs><path fill="url(#p.2)" d="m470.2126 164.25229l-32.102722 102.89011l135.78772 0.42565918l37.570923 -103.315765z" fill-rule="evenodd"/><defs><linearGradient id="p.3" gradientUnits="userSpaceOnUse" gradientTransform="matrix(19.787540321400744 0.0 0.0 19.787540321400744 0.0 0.0)" spreadMethod="pad" x1="3.1338819854667324" y1="8.299482112217966" x2="3.133810482784653" y2="28.087022433489523"><stop offset="0.0" stop-color="#8323a7"/><stop offset="1.0" stop-color="#c23c81"/></linearGradient></defs><path fill="url(#p.3)" d="m62.011818 164.22711l139.84155 391.54596l74.12108 -165.76508l-81.394196 -225.78088z" fill-rule="evenodd"/><defs><linearGradient id="p.4" gradientUnits="userSpaceOnUse" gradientTransform="matrix(-19.787160265453487 0.0 0.0 -19.787160265453487 0.0 0.0)" spreadMethod="pad" x1="-24.06323283542224" y1="-28.087534962993384" x2="-24.063305375768344" y2="-8.300374697672863"><stop offset="0.0" stop-color="#c23c81"/><stop offset="1.0" stop-color="#ed7a52"/></linearGradient></defs><path fill="url(#p.4)" d="m476.14307 164.24084l-140.77917 391.5307l-133.5212 0l140.77916 -391.5307z" fill-rule="evenodd"/></g></svg>