<svg version="1.1" viewBox="0.0 0.0 426.96587926509187 113.99475065616798" fill="none" stroke="none" stroke-linecap="square" stroke-miterlimit="10" xmlns:xlink="http://www.w3.org/1999/xlink" xmlns="http://www.w3.org/2000/svg"><clipPath id="p.0"><path d="m0 0l426.96588 0l0 113.99475l-426.96588 0l0 -113.99475z" clip-rule="nonzero"/></clipPath><g clip-path="url(#p.0)"><path fill="#000000" fill-opacity="0.0" d="m0 0l426.96588 0l0 113.99475l-426.96588 0z" fill-rule="evenodd"/><path fill="#c13262" d="m39.418312 53.94133l22.064175 0l0 30.737427l-22.064175 0z" fill-rule="evenodd"/><defs><linearGradient id="p.1" gradientUnits="userSpaceOnUse" gradientTransform="matrix(8.069754089089335 0.0 0.0 8.069754089089335 0.0 0.0)" spreadMethod="pad" x1="2.001124463031295" y1="2.425317025425786" x2="1.9994810709444093" y2="10.495070947178078"><stop offset="0.0" stop-color="#8323a7"/><stop offset="1.0" stop-color="#c23c81"/></linearGradient></defs><path fill="url(#p.1)" d="m16.148582 19.578959l23.255505 65.113686l12.32626 -27.566559l-13.535774 -37.547127z" fill-rule="evenodd"/><defs><linearGradient id="p.2" gradientUnits="userSpaceOnUse" gradientTransform="matrix(-8.068704980475045 0.0 0.0 -8.068704980475045 0.0 0.0)" spreadMethod="pad" x1="-10.535576479876385" y1="-10.495325610310799" x2="-10.53560570518181" y2="-2.426620629888682"><stop offset="0.0" stop-color="#c23c81"/><stop offset="1.0" stop-color="#ed7a52"/></linearGradient></defs><path fill="url(#p.2)" d="m85.00846 19.579687l-23.402306 65.103836l-22.195782 0l23.402306 -65.103836z" fill-rule="evenodd"/><defs><linearGradient id="p.3" gradientUnits="userSpaceOnUse" gradientTransform="matrix(5.369297469405158 0.0 0.0 5.369297469405158 0.0 0.0)" spreadMethod="pad" x1="42.764606911363686" y1="12.452626533761027" x2="48.13390438076884" y2="12.452626533761027"><stop offset="0.0" stop-color="#ed7a52"/><stop offset="1.0" stop-color="#fec02a"/></linearGradient></defs><path fill="url(#p.3)" d="m234.95454 49.680553l-5.3386536 17.110516l22.58136 0.07078552l6.248001 -17.181301z" fill-rule="evenodd"/><defs><linearGradient id="p.4" gradientUnits="userSpaceOnUse" gradientTransform="matrix(5.369297469405158 0.0 0.0 5.369297469405158 0.0 0.0)" spreadMethod="pad" x1="44.86479485157483" y1="6.748855954614361" x2="50.23409232097998" y2="6.748855954614361"><stop offset="0.0" stop-color="#ed7a52"/><stop offset="1.0" stop-color="#fec02a"/></linearGradient></defs><path fill="url(#p.4)" d="m246.23108 19.055311l-5.3386536 17.110514l22.58136 0.07078934l6.247986 -17.181303z" fill-rule="evenodd"/><defs><linearGradient id="p.5" gradientUnits="userSpaceOnUse" gradientTransform="matrix(-8.068705139310577 0.0 0.0 -8.068705139310577 0.0 0.0)" spreadMethod="pad" x1="-30.63892014062345" y1="-10.429908370792287" x2="-30.638950636593734" y2="-2.36120323153934"><stop offset="0.0" stop-color="#c23c81"/><stop offset="1.0" stop-color="#ed7a52"/></linearGradient></defs><path fill="url(#p.5)" d="m247.21642 19.051853l-23.402313 65.103836l-22.19577 0l23.402298 -65.103836z" fill-rule="evenodd"/><path fill="#000000" fill-opacity="0.0" d="m70.24002 8.0l128.94489 0l0 103.43307l-128.94489 0z" fill-rule="evenodd"/><path fill="#434343" d="m85.036896 77.21625q-0.78125 -2.015625 -1.078125 -4.0q-0.28125 -1.984375 -0.28125 -5.4375q0 -3.453125 0.734375 -8.53125q2.484375 -16.921875 15.375 -16.921875q4.984375 0 7.625 3.421875q2.640625 3.421875 2.640625 8.875q0 5.4375 -0.6875 10.59375q-0.09375 0.90625 -1.046875 0.9375l-16.71875 0.578125q-0.03125 0.515625 -0.03125 1.359375q0 3.828125 1.328125 6.0625q1.34375 2.234375 4.046875 2.234375q2.703125 0 5.015625 -0.796875q2.328125 -0.796875 2.734375 -0.796875q0.40625 0 0.703125 0.28125q0.3125 0.265625 0.3125 0.734375l-0.671875 5.953125q-0.03125 0.515625 -0.1875 0.671875q-0.15625 0.140625 -0.59375 0.3125q-4.09375 1.1875 -7.890625 1.1875q-3.78125 0 -5.890625 -0.90625q-2.09375 -0.921875 -3.375 -2.359375q-1.265625 -1.4375 -2.0625 -3.453125zm7.375 -18.984375l-0.3125 2.171875l8.84375 -0.4375q0.578125 -0.03125 0.734375 -0.203125q0.515625 -0.515625 0.515625 -2.796875q0 -2.28125 -0.15625 -3.203125q-0.15625 -0.9375 -0.515625 -1.921875q-0.78125 -2.171875 -2.671875 -2.171875q-1.875 0 -2.953125 0.640625q-2.40625 1.5 -3.484375 7.921875zm41.606842 26.546875l0.875 -7.28125q-1.6875 3.125 -3.609375 4.78125q-1.90625 1.65625 -4.328125 1.65625q-2.421875 0 -4.046875 -0.796875q-1.625 -0.796875 -2.65625 -2.09375q-1.03125 -1.3125 -1.671875 -3.140625q-1.1875 -3.25 -1.1875 -8.875q0 -5.640625 0.75 -9.5625q0.765625 -3.9375 1.34375 -5.984375q0.578125 -2.046875 1.53125 -4.203125q0.96875 -2.171875 2.1875 -3.625q2.78125 -3.328125 7.015625 -3.328125q3.109375 0 4.765625 1.5q1.671875 1.484375 2.8125 4.421875l0.34375 -4.53125q0.0625 -0.8125 0.875 -0.84375l6.84375 -0.234375q0.703125 0.09375 0.703125 0.703125l-4.59375 41.0625q-0.984375 9.109375 -5.65625 12.96875q-3.6875 3.078125 -9.921875 3.078125q-3.953125 0 -8.015625 -0.90625q-0.578125 -0.109375 -0.78125 -0.296875q-0.203125 -0.1875 -0.203125 -0.6875l0.671875 -6.125q0.109375 -0.921875 0.75 -0.921875q0.4375 0 2.46875 0.671875q2.03125 0.6875 4.53125 0.6875q2.515625 0 3.90625 -0.46875q1.40625 -0.453125 2.265625 -1.53125q1.484375 -1.828125 2.03125 -6.09375zm-8.09375 -16.71875q0 8.09375 4.328125 8.09375q1.890625 0 3.078125 -1.75q1.1875 -1.75 2.046875 -6.984375q0.875 -5.25 0.875 -7.65625q0 -2.40625 -0.046875 -3.046875q-0.03125 -0.640625 -0.140625 -1.703125q-0.09375 -1.078125 -0.359375 -1.796875q-0.265625 -0.734375 -0.71875 -1.484375q-0.875 -1.453125 -2.84375 -1.453125q-1.953125 0 -3.109375 1.75q-1.15625 1.734375 -1.796875 4.65625q-1.3125 6.21875 -1.3125 11.375zm56.117126 -24.546875l-4.390625 39.03125q-0.109375 0.875 -0.890625 0.921875l-6.828125 0.234375q-0.71875 -0.078125 -0.71875 -0.640625l0.640625 -4.609375q-1.546875 2.640625 -3.390625 4.0625q-1.84375 1.421875 -4.15625 1.421875q-2.296875 0 -3.921875 -0.796875q-1.625 -0.796875 -2.65625 -2.09375q-1.03125 -1.3125 -1.671875 -3.140625q-1.1875 -3.25 -1.1875 -8.875q0 -5.640625 0.75 -9.5625q0.765625 -3.9375 1.34375 -5.984375q0.578125 -2.046875 1.53125 -4.203125q0.96875 -2.171875 2.1875 -3.625q2.78125 -3.328125 7.015625 -3.328125q3.140625 0 4.796875 1.515625q1.671875 1.5 2.78125 4.453125l0.40625 -4.609375q0.078125 -0.75 0.84375 -0.8125l6.640625 -0.234375q0.875 0.0625 0.875 0.875zm-20.640625 24.546875q0 8.09375 4.328125 8.09375q1.890625 0 3.078125 -1.75q1.1875 -1.75 2.046875 -6.984375q0.875 -5.25 0.875 -7.65625q0 -2.40625 -0.046875 -3.046875q-0.03125 -0.640625 -0.140625 -1.703125q-0.09375 -1.078125 -0.359375 -1.796875q-0.265625 -0.734375 -0.71875 -1.484375q-0.875 -1.453125 -2.84375 -1.453125q-1.953125 0 -3.109375 1.75q-1.15625 1.734375 -1.796875 4.65625q-1.3125 6.21875 -1.3125 11.375z" fill-rule="nonzero"/><path fill="#000000" fill-opacity="0.0" d="m247.21776 8.0l343.84253 0l0 103.43307l-343.84253 0z" fill-rule="evenodd"/><path fill="#434343" d="m277.67087 82.85687l0.8125 -2.609375q-4.875 3.6875 -10.0625 3.6875q-3.890625 0 -5.140625 -2.84375q-1.234375 -2.84375 -0.328125 -7.109375q0.15625 -0.71875 0.5625 -1.9375l9.234375 -28.328125q0.265625 -0.8125 1.015625 -0.84375l6.890625 -0.265625q0.703125 0.0625 0.578125 0.703125l-8.734375 26.703125q-0.296875 0.890625 -0.453125 1.625q-0.609375 2.84375 0.296875 3.796875q0.90625 0.953125 3.125 0.953125q2.21875 0 4.5625 -0.84375l10.34375 -31.828125q0.28125 -0.8125 1.03125 -0.84375l6.890625 -0.234375q0.703125 0.0625 0.5625 0.703125l-12.734375 39.171875q-0.265625 0.8125 -1.09375 0.875l-6.671875 0.3125q-0.859375 -0.046875 -0.6875 -0.84375zm43.80719 -32.34375l-3.796875 -0.15625q-1.625 0 -2.71875 0.75q-1.09375 0.734375 -1.390625 2.140625q-0.296875 1.40625 -0.15625 3.09375q0.203125 2.265625 1.234375 5.28125q1.03125 3.015625 1.40625 4.265625q1.140625 3.890625 0.390625 7.421875q-1.078125 5.109375 -4.671875 7.875q-3.578125 2.75 -9.671875 2.75q-3.0 0 -4.734375 -0.328125q-1.71875 -0.3125 -1.875 -0.5q-0.140625 -0.1875 -0.0625 -0.59375l2.203125 -6.265625q0.265625 -0.84375 0.78125 -0.84375q0.53125 0 1.9375 0.375q1.421875 0.375 2.53125 0.375q4.125 0 4.828125 -3.296875q0.484375 -2.328125 -0.078125 -4.359375q-0.546875 -2.03125 -1.265625 -4.1875q-0.71875 -2.171875 -1.078125 -3.46875q-0.359375 -1.3125 -0.5625 -3.609375q-0.203125 -2.3125 0.21875 -4.34375q1.015625 -4.734375 4.453125 -7.640625q3.453125 -2.921875 8.859375 -2.921875q3.5 0 5.375 0.34375q0.8125 0.140625 0.65625 0.875l-2.015625 6.03125q-0.1875 0.9375 -0.796875 0.9375zm18.28717 -11.5625q-2.09375 0 -3.0625 -1.3125q-0.96875 -1.328125 -0.53125 -3.40625q0.453125 -2.09375 2.46875 -3.734375q2.015625 -1.640625 4.109375 -1.640625q2.109375 0 3.125 1.328125q1.03125 1.3125 0.59375 3.390625q-0.4375 2.078125 -2.515625 3.734375q-2.078125 1.640625 -4.1875 1.640625zm2.796875 4.5625l-12.703125 39.03125q-0.171875 0.46875 -0.390625 0.671875q-0.203125 0.203125 -0.6875 0.25l-6.859375 0.234375q-0.71875 -0.078125 -0.59375 -0.640625l12.828125 -39.375q0.296875 -0.75 1.015625 -0.8125l6.65625 -0.234375q0.90625 0.0625 0.734375 0.875zm9.483002 40.421875q-6.0 0 -8.03125 -3.609375q-2.015625 -3.609375 -0.546875 -10.515625q0.6875 -3.203125 2.5 -8.375q1.8125 -5.1875 2.921875 -7.546875q1.109375 -2.359375 2.703125 -4.609375q1.59375 -2.25 3.421875 -3.703125q4.046875 -3.25 9.765625 -3.25q8.125 0 9.265625 5.96875q0.609375 3.171875 -0.359375 7.703125q-0.953125 4.515625 -2.6875 9.359375q-1.71875 4.828125 -2.828125 7.15625q-1.09375 2.3125 -2.671875 4.53125q-1.578125 2.21875 -3.390625 3.671875q-4.046875 3.21875 -10.0625 3.21875zm9.140625 -14.828125q0.75 -1.796875 2.390625 -6.71875q1.640625 -4.921875 2.140625 -7.296875q1.21875 -5.75 -2.953125 -5.75q-1.953125 0 -3.625 1.859375q-1.65625 1.859375 -3.359375 6.1875q-3.421875 8.8125 -4.59375 14.296875q-1.15625 5.484375 2.96875 5.484375q1.96875 0 3.671875 -1.875q1.703125 -1.890625 3.359375 -6.1875zm34.520844 -25.59375l-1.046875 3.109375q5.796875 -4.296875 10.265625 -4.296875q5.6875 0 5.84375 6.234375q0.046875 1.6875 -0.28125 3.203125q-0.3125 1.5 -0.59375 2.40625l-9.28125 28.375q-0.328125 0.84375 -1.046875 0.921875l-6.890625 0.234375q-0.734375 -0.078125 -0.609375 -0.640625l8.796875 -26.8125q0.28125 -0.890625 0.421875 -1.59375q0.59375 -2.78125 -0.5 -3.78125q-1.09375 -1.0 -3.09375 -1.0q-1.984375 0 -4.328125 0.84375l-10.390625 31.828125q-0.328125 0.84375 -1.046875 0.921875l-6.890625 0.234375q-0.71875 -0.078125 -0.59375 -0.640625l12.828125 -39.375q0.296875 -0.75 1.015625 -0.8125l6.6875 -0.234375q0.90625 0.03125 0.734375 0.875z" fill-rule="nonzero"/></g></svg>