<svg xmlns="http://www.w3.org/2000/svg" xmlns:xlink="http://www.w3.org/1999/xlink" version="1.1" class="marks" width="300" height="247" viewBox="0 0 300 247"><g fill="none" stroke-miterlimit="10" transform="translate(40,10)"><g class="mark-group role-frame root" role="graphics-object" aria-roledescription="group mark container"><g transform="translate(0,0)"><path class="background" aria-hidden="true" d="M0,0h200v200h-200Z"/><g><g class="mark-group role-axis" role="graphics-symbol" aria-roledescription="axis" aria-label="X-axis titled 'Horsepower' for a linear scale with values from 0 to 240"><g transform="translate(0.5,200.5)"><path class="background" aria-hidden="true" d="M0,0h0v0h0Z" pointer-events="none"/><g><g class="mark-rule role-axis-grid" pointer-events="none"><line transform="translate(0,0)" x2="0" y2="-200" stroke="#ddd" stroke-width="1" opacity="1"/><line transform="translate(42,0)" x2="0" y2="-200" stroke="#ddd" stroke-width="1" opacity="1"/><line transform="translate(83,0)" x2="0" y2="-200" stroke="#ddd" stroke-width="1" opacity="1"/><line transform="translate(125,0)" x2="0" y2="-200" stroke="#ddd" stroke-width="1" opacity="1"/><line transform="translate(167,0)" x2="0" y2="-200" stroke="#ddd" stroke-width="1" opacity="1"/></g><g class="mark-rule role-axis-tick" pointer-events="none"><line transform="translate(0,0)" x2="0" y2="5" stroke="#888" stroke-width="1" opacity="1"/><line transform="translate(42,0)" x2="0" y2="5" stroke="#888" stroke-width="1" opacity="1"/><line transform="translate(83,0)" x2="0" y2="5" stroke="#888" stroke-width="1" opacity="1"/><line transform="translate(125,0)" x2="0" y2="5" stroke="#888" stroke-width="1" opacity="1"/><line transform="translate(167,0)" x2="0" y2="5" stroke="#888" stroke-width="1" opacity="1"/></g><g class="mark-text role-axis-label" pointer-events="none"><text text-anchor="middle" transform="translate(0,15)" font-family="sans-serif" font-size="10px" fill="#000" opacity="1">0</text><text text-anchor="middle" transform="translate(42,15)" font-family="sans-serif" font-size="10px" fill="#000" opacity="1">50</text><text text-anchor="middle" transform="translate(83,15)" font-family="sans-serif" font-size="10px" fill="#000" opacity="1">100</text><text text-anchor="middle" transform="translate(125,15)" font-family="sans-serif" font-size="10px" fill="#000" opacity="1">150</text><text text-anchor="middle" transform="translate(167,15)" font-family="sans-serif" font-size="10px" fill="#000" opacity="1">200</text></g><g class="mark-text role-axis-title" pointer-events="none"><text text-anchor="middle" transform="translate(100,30)" font-family="sans-serif" font-size="11px" font-weight="bold" fill="#000" opacity="1">Horsepower</text></g></g><path class="foreground" aria-hidden="true" d="" pointer-events="none" display="none"/></g></g><g class="mark-group role-axis" role="graphics-symbol" aria-roledescription="axis" aria-label="Y-axis titled 'Miles_per_Gallon' for a linear scale with values from 0 to 50"><g transform="translate(0.5,0.5)"><path class="background" aria-hidden="true" d="M0,0h0v0h0Z" pointer-events="none"/><g><g class="mark-rule role-axis-grid" pointer-events="none"><line transform="translate(0,200)" x2="200" y2="0" stroke="#ddd" stroke-width="1" opacity="1"/><line transform="translate(0,180)" x2="200" y2="0" stroke="#ddd" stroke-width="1" opacity="1"/><line transform="translate(0,160)" x2="200" y2="0" stroke="#ddd" stroke-width="1" opacity="1"/><line transform="translate(0,140)" x2="200" y2="0" stroke="#ddd" stroke-width="1" opacity="1"/><line transform="translate(0,120)" x2="200" y2="0" stroke="#ddd" stroke-width="1" opacity="1"/><line transform="translate(0,100)" x2="200" y2="0" stroke="#ddd" stroke-width="1" opacity="1"/><line transform="translate(0,80)" x2="200" y2="0" stroke="#ddd" stroke-width="1" opacity="1"/><line transform="translate(0,60)" x2="200" y2="0" stroke="#ddd" stroke-width="1" opacity="1"/><line transform="translate(0,40)" x2="200" y2="0" stroke="#ddd" stroke-width="1" opacity="1"/><line transform="translate(0,20)" x2="200" y2="0" stroke="#ddd" stroke-width="1" opacity="1"/><line transform="translate(0,0)" x2="200" y2="0" stroke="#ddd" stroke-width="1" opacity="1"/></g><g class="mark-rule role-axis-tick" pointer-events="none"><line transform="translate(0,200)" x2="-5" y2="0" stroke="#888" stroke-width="1" opacity="1"/><line transform="translate(0,180)" x2="-5" y2="0" stroke="#888" stroke-width="1" opacity="1"/><line transform="translate(0,160)" x2="-5" y2="0" stroke="#888" stroke-width="1" opacity="1"/><line transform="translate(0,140)" x2="-5" y2="0" stroke="#888" stroke-width="1" opacity="1"/><line transform="translate(0,120)" x2="-5" y2="0" stroke="#888" stroke-width="1" opacity="1"/><line transform="translate(0,100)" x2="-5" y2="0" stroke="#888" stroke-width="1" opacity="1"/><line transform="translate(0,80)" x2="-5" y2="0" stroke="#888" stroke-width="1" opacity="1"/><line transform="translate(0,60)" x2="-5" y2="0" stroke="#888" stroke-width="1" opacity="1"/><line transform="translate(0,40)" x2="-5" y2="0" stroke="#888" stroke-width="1" opacity="1"/><line transform="translate(0,20)" x2="-5" y2="0" stroke="#888" stroke-width="1" opacity="1"/><line transform="translate(0,0)" x2="-5" y2="0" stroke="#888" stroke-width="1" opacity="1"/></g><g class="mark-text role-axis-label" pointer-events="none"><text text-anchor="end" transform="translate(-7,203)" font-family="sans-serif" font-size="10px" fill="#000" opacity="1">0</text><text text-anchor="end" transform="translate(-7,183)" font-family="sans-serif" font-size="10px" fill="#000" opacity="1">5</text><text text-anchor="end" transform="translate(-7,163)" font-family="sans-serif" font-size="10px" fill="#000" opacity="1">10</text><text text-anchor="end" transform="translate(-7,143)" font-family="sans-serif" font-size="10px" fill="#000" opacity="1">15</text><text text-anchor="end" transform="translate(-7,123)" font-family="sans-serif" font-size="10px" fill="#000" opacity="1">20</text><text text-anchor="end" transform="translate(-7,103)" font-family="sans-serif" font-size="10px" fill="#000" opacity="1">25</text><text text-anchor="end" transform="translate(-7,83)" font-family="sans-serif" font-size="10px" fill="#000" opacity="1">30</text><text text-anchor="end" transform="translate(-7,63)" font-family="sans-serif" font-size="10px" fill="#000" opacity="1">35</text><text text-anchor="end" transform="translate(-7,43)" font-family="sans-serif" font-size="10px" fill="#000" opacity="1">40</text><text text-anchor="end" transform="translate(-7,23)" font-family="sans-serif" font-size="10px" fill="#000" opacity="1">45</text><text text-anchor="end" transform="translate(-7,3)" font-family="sans-serif" font-size="10px" fill="#000" opacity="1">50</text></g><g class="mark-text role-axis-title" pointer-events="none"><text text-anchor="middle" transform="translate(-23.123046875,100) rotate(-90) translate(0,-2)" font-family="sans-serif" font-size="11px" font-weight="bold" fill="#000" opacity="1">Miles_per_Gallon</text></g></g><path class="foreground" aria-hidden="true" d="" pointer-events="none" display="none"/></g></g><g class="mark-symbol role-mark marks" role="graphics-symbol" aria-roledescription="symbol mark container"><path transform="translate(108,130)" d="M5.408,0A5.408,5.408,0,1,1,-5.408,0A5.408,5.408,0,1,1,5.408,0" fill="#4682b4"/><path transform="translate(142,130)" d="M3.354,0A3.354,3.354,0,1,1,-3.354,0A3.354,3.354,0,1,1,3.354,0" fill="#4682b4"/><path transform="translate(125,130)" d="M7.348,0A7.348,7.348,0,1,1,-7.348,0A7.348,7.348,0,1,1,7.348,0" fill="#4682b4"/><path transform="translate(158,130)" d="M3.354,0A3.354,3.354,0,1,1,-3.354,0A3.354,3.354,0,1,1,3.354,0" fill="#4682b4"/><path transform="translate(192,150)" d="M3,0A3,3,0,1,1,-3,0A3,3,0,1,1,3,0" fill="#4682b4"/><path transform="translate(175,150)" d="M3.674,0A3.674,3.674,0,1,1,-3.674,0A3.674,3.674,0,1,1,3.674,0" fill="#4682b4"/><path transform="translate(142,150)" d="M5.196,0A5.196,5.196,0,1,1,-5.196,0A5.196,5.196,0,1,1,5.196,0" fill="#4682b4"/><path transform="translate(75,110)" d="M9.487,0A9.487,9.487,0,1,1,-9.487,0A9.487,9.487,0,1,1,9.487,0" fill="#4682b4"/><path transform="translate(75,130)" d="M6.364,0A6.364,6.364,0,1,1,-6.364,0A6.364,6.364,0,1,1,6.364,0" fill="#4682b4"/><path transform="translate(75,90)" d="M9.487,0A9.487,9.487,0,1,1,-9.487,0A9.487,9.487,0,1,1,9.487,0" fill="#4682b4"/><path transform="translate(42,90)" d="M3,0A3,3,0,1,1,-3,0A3,3,0,1,1,3,0" fill="#4682b4"/><path transform="translate(92,90)" d="M4.243,0A4.243,4.243,0,1,1,-4.243,0A4.243,4.243,0,1,1,4.243,0" fill="#4682b4"/><path transform="translate(158,170)" d="M1.5,0A1.5,1.5,0,1,1,-1.5,0A1.5,1.5,0,1,1,1.5,0" fill="#4682b4"/><path transform="translate(92,130)" d="M8.078,0A8.078,8.078,0,1,1,-8.078,0A8.078,8.078,0,1,1,8.078,0" fill="#4682b4"/><path transform="translate(125,150)" d="M6.874,0A6.874,6.874,0,1,1,-6.874,0A6.874,6.874,0,1,1,6.874,0" fill="#4682b4"/><path transform="translate(158,150)" d="M3.354,0A3.354,3.354,0,1,1,-3.354,0A3.354,3.354,0,1,1,3.354,0" fill="#4682b4"/><path transform="translate(58,110)" d="M3.969,0A3.969,3.969,0,1,1,-3.969,0A3.969,3.969,0,1,1,3.969,0" fill="#4682b4"/><path transform="translate(58,70)" d="M9.487,0A9.487,9.487,0,1,1,-9.487,0A9.487,9.487,0,1,1,9.487,0" fill="#4682b4"/><path transform="translate(58,50)" d="M6.538,0A6.538,6.538,0,1,1,-6.538,0A6.538,6.538,0,1,1,6.538,0" fill="#4682b4"/><path transform="translate(58,90)" d="M7.348,0A7.348,7.348,0,1,1,-7.348,0A7.348,7.348,0,1,1,7.348,0" fill="#4682b4"/><path transform="translate(42,110)" d="M1.5,0A1.5,1.5,0,1,1,-1.5,0A1.5,1.5,0,1,1,1.5,0" fill="#4682b4"/><path transform="translate(108,150)" d="M3,0A3,3,0,1,1,-3,0A3,3,0,1,1,3,0" fill="#4682b4"/><path transform="translate(92,110)" d="M7.194,0A7.194,7.194,0,1,1,-7.194,0A7.194,7.194,0,1,1,7.194,0" fill="#4682b4"/><path transform="translate(192,130)" d="M1.5,0A1.5,1.5,0,1,1,-1.5,0A1.5,1.5,0,1,1,1.5,0" fill="#4682b4"/><path transform="translate(108,110)" d="M3,0A3,3,0,1,1,-3,0A3,3,0,1,1,3,0" fill="#4682b4"/><path transform="translate(42,70)" d="M3,0A3,3,0,1,1,-3,0A3,3,0,1,1,3,0" fill="#4682b4"/><path transform="translate(58,130)" d="M2.598,0A2.598,2.598,0,1,1,-2.598,0A2.598,2.598,0,1,1,2.598,0" fill="#4682b4"/><path transform="translate(75,70)" d="M4.5,0A4.5,4.5,0,1,1,-4.5,0A4.5,4.5,0,1,1,4.5,0" fill="#4682b4"/><path transform="translate(42,50)" d="M2.121,0A2.121,2.121,0,1,1,-2.121,0A2.121,2.121,0,1,1,2.121,0" fill="#4682b4"/><path transform="translate(42,30)" d="M3,0A3,3,0,1,1,-3,0A3,3,0,1,1,3,0" fill="#4682b4"/><path transform="translate(75,50)" d="M3.674,0A3.674,3.674,0,1,1,-3.674,0A3.674,3.674,0,1,1,3.674,0" fill="#4682b4"/><path transform="translate(58,30)" d="M2.598,0A2.598,2.598,0,1,1,-2.598,0A2.598,2.598,0,1,1,2.598,0" fill="#4682b4"/><path transform="translate(58,10)" d="M1.5,0A1.5,1.5,0,1,1,-1.5,0A1.5,1.5,0,1,1,1.5,0" fill="#4682b4"/><path transform="translate(108,70)" d="M1.5,0A1.5,1.5,0,1,1,-1.5,0A1.5,1.5,0,1,1,1.5,0" fill="#4682b4"/><path transform="translate(92,70)" d="M1.5,0A1.5,1.5,0,1,1,-1.5,0A1.5,1.5,0,1,1,1.5,0" fill="#4682b4"/></g><g class="mark-group role-legend" role="graphics-symbol" aria-roledescription="legend" aria-label="Symbol legend titled 'Count' for size with values from 0 to 40"><g transform="translate(218,0)"><path class="background" aria-hidden="true" d="M0,0h37v94h-37Z" pointer-events="none"/><g><g class="mark-group role-legend-entry"><g transform="translate(0,16)"><path class="background" aria-hidden="true" d="M0,0h0v0h0Z" pointer-events="none"/><g><g class="mark-group role-scope" role="graphics-object" aria-roledescription="group mark container"><g transform="translate(0,0)"><path class="background" aria-hidden="true" d="M0,0h36.123046875v11.743416490252569h-36.123046875Z" pointer-events="none" opacity="1"/><g><g class="mark-symbol role-legend-symbol" pointer-events="none"><path transform="translate(10.5,5.5)" d="M4.743,0A4.743,4.743,0,1,1,-4.743,0A4.743,4.743,0,1,1,4.743,0" fill="#4682b4" stroke-width="1.5" opacity="1"/></g><g class="mark-text role-legend-label" pointer-events="none"><text text-anchor="start" transform="translate(25,8.5)" font-family="sans-serif" font-size="10px" fill="#000" opacity="1">10</text></g></g><path class="foreground" aria-hidden="true" d="" pointer-events="none" display="none"/></g><g transform="translate(0,15)"><path class="background" aria-hidden="true" d="M0,0h36.123046875v15.70820393249937h-36.123046875Z" pointer-events="none" opacity="1"/><g><g class="mark-symbol role-legend-symbol" pointer-events="none"><path transform="translate(10.5,7.5)" d="M6.708,0A6.708,6.708,0,1,1,-6.708,0A6.708,6.708,0,1,1,6.708,0" fill="#4682b4" stroke-width="1.5" opacity="1"/></g><g class="mark-text role-legend-label" pointer-events="none"><text text-anchor="start" transform="translate(25,10.5)" font-family="sans-serif" font-size="10px" fill="#000" opacity="1">20</text></g></g><path class="foreground" aria-hidden="true" d="" pointer-events="none" display="none"/></g><g transform="translate(0,34)"><path class="background" aria-hidden="true" d="M0,0h36.123046875v18.715838362577493h-36.123046875Z" pointer-events="none" opacity="1"/><g><g class="mark-symbol role-legend-symbol" pointer-events="none"><path transform="translate(10.5,9)" d="M8.216,0A8.216,8.216,0,1,1,-8.216,0A8.216,8.216,0,1,1,8.216,0" fill="#4682b4" stroke-width="1.5" opacity="1"/></g><g class="mark-text role-legend-label" pointer-events="none"><text text-anchor="start" transform="translate(25,12)" font-family="sans-serif" font-size="10px" fill="#000" opacity="1">30</text></g></g><path class="foreground" aria-hidden="true" d="" pointer-events="none" display="none"/></g><g transform="translate(0,56)"><path class="background" aria-hidden="true" d="M0,0h36.123046875v21.48683298050514h-36.123046875Z" pointer-events="none" opacity="1"/><g><g class="mark-symbol role-legend-symbol" pointer-events="none"><path transform="translate(10.5,10.5)" d="M9.487,0A9.487,9.487,0,1,1,-9.487,0A9.487,9.487,0,1,1,9.487,0" fill="#4682b4" stroke-width="1.5" opacity="1"/></g><g class="mark-text role-legend-label" pointer-events="none"><text text-anchor="start" transform="translate(25,13.5)" font-family="sans-serif" font-size="10px" fill="#000" opacity="1">40</text></g></g><path class="foreground" aria-hidden="true" d="" pointer-events="none" display="none"/></g></g></g><path class="foreground" aria-hidden="true" d="" pointer-events="none" display="none"/></g></g><g class="mark-text role-legend-title" pointer-events="none"><text text-anchor="start" transform="translate(0,9)" font-family="sans-serif" font-size="11px" font-weight="bold" fill="#000" opacity="1">Count</text></g></g><path class="foreground" aria-hidden="true" d="" pointer-events="none" display="none"/></g></g></g><path class="foreground" aria-hidden="true" d="" display="none"/></g></g></g></svg>